<svg width="32" height="32" xmlns="http://www.w3.org/2000/svg">

 <g>
  <title>background</title>
  <rect fill="none" id="canvas_background" height="402" width="582" y="-1" x="-1"/>
 </g>
 <g>
  <title>Layer 1</title>
  <path id="svg_2" fill="#000000" d="m16,0c-8.837,0 -16,7.163 -16,16c0,8.836 7.163,16 16,16s16,-7.164 16,-16c0,-8.837 -7.163,-16 -16,-16z"/>
  <path id="svg_3" fill="#FFFFFF" d="m22.057,7.93l-12.114,0c-1.14,0 -2.019,0.879 -2.019,2.019l0,12.113c0,1.14 0.879,2.019 2.019,2.019l12.113,0c1.14,0 2.019,-0.879 2.019,-2.019l0,-12.113c0.001,-1.141 -0.879,-2.019 -2.018,-2.019zm-6.045,4.903c1.791,0 3.243,1.407 3.243,3.142c0,1.735 -1.452,3.142 -3.243,3.142c-1.79,0 -3.242,-1.408 -3.242,-3.142c0,-1.736 1.452,-3.142 3.242,-3.142zm6.045,8.724c0,0.354 -0.151,0.505 -0.505,0.505l-11.104,0c-0.353,0 -0.505,-0.151 -0.505,-0.505l0,-7.066l1.258,0.274c-0.135,0.439 -0.208,0.903 -0.208,1.385c0,2.684 2.248,4.863 5.018,4.863c2.772,0 5.019,-2.178 5.019,-4.863c0,-0.482 -0.073,-0.946 -0.208,-1.385l1.234,-0.274l0,7.066l0.001,0zm0,-9.085c0,0.279 -0.226,0.505 -0.505,0.505l-2.019,0c-0.279,0 -0.505,-0.226 -0.505,-0.505l0,-2.019c0,-0.279 0.226,-0.505 0.505,-0.505l2.019,0c0.279,0 0.505,0.226 0.505,0.505l0,2.019z"/>
 </g>
</svg>